<svg id="_イヤー_2" xmlns="http://www.w3.org/2000/svg" viewBox="0 0 417.98 414.11"><defs><style>.cls-1{font-family:Bicyclette-Bold,Bicyclette;font-size:61.76px}</style></defs><g id="_イヤー_1-2"><text class="cls-1" transform="rotate(18.51 -24.127 756.6)"><tspan x="0" y="0">D</tspan></text><text class="cls-1" transform="rotate(33.71 40.916 489.217)"><tspan x="0" y="0">O</tspan></text><text class="cls-1" transform="rotate(48.78 65.2 388.78)"><tspan x="0" y="0">D</tspan></text><text class="cls-1" transform="rotate(58.45 67.155 363.2)"><tspan x="0" y="0"></tspan></text><text class="cls-1" transform="rotate(63.05 70.744 347.304)"><tspan x="0" y="0"></tspan></text><text class="cls-1" transform="rotate(67.67 73.939 333.233)"><tspan x="0" y="0"></tspan></text><text class="cls-1" transform="rotate(72.29 76.775 320.762)"><tspan x="0" y="0"></tspan></text><text class="cls-1" transform="rotate(81.4 88.136 292.128)"><tspan x="0" y="0">B</tspan></text><text class="cls-1" transform="rotate(93.47 91.018 273.234)"><tspan x="0" y="0">a</tspan></text><text class="cls-1" transform="rotate(104.37 94.877 257.245)"><tspan x="0" y="0">u</tspan></text><text class="cls-1" transform="rotate(115.4 98.28 243.271)"><tspan x="0" y="0">h</tspan></text><text class="cls-1" transform="rotate(126.36 101.144 231.07)"><tspan x="0" y="0">ü</tspan></text><text class="cls-1" transform="rotate(139.31 107.18 216.976)"><tspan x="0" y="0">tt</tspan></text><text class="cls-1" transform="rotate(152.3 107.188 206.087)"><tspan x="0" y="0">e</tspan></text><text class="cls-1" transform="rotate(160.3 103.944 199.93)"><tspan x="0" y="0"></tspan></text><text class="cls-1" transform="rotate(164.94 104.944 195.73)"><tspan x="0" y="0"></tspan></text><text class="cls-1" transform="rotate(169.56 105.907 191.596)"><tspan x="0" y="0"></tspan></text><text class="cls-1" transform="rotate(174.16 106.832 187.512)"><tspan x="0" y="0"></tspan></text><text class="cls-1" transform="rotate(-176.27 116.095 179.309)"><tspan x="0" y="0">D</tspan></text><text class="cls-1" transform="rotate(-161.08 119.743 166.87)"><tspan x="0" y="0">O</tspan></text><text class="cls-1" transform="rotate(-146.86 120.822 154.113)"><tspan x="0" y="0">P</tspan></text><text class="cls-1" transform="rotate(-134.09 123.617 142.107)"><tspan x="0" y="0">P</tspan></text><text class="cls-1" transform="rotate(-121.37 126.584 128.913)"><tspan x="0" y="0">E</tspan></text><text class="cls-1" transform="rotate(-109.37 128.903 114.22)"><tspan x="0" y="0">L</tspan></text><text class="cls-1" transform="rotate(-101.41 126.588 99.7)"><tspan x="0" y="0"></tspan></text><text class="cls-1" transform="rotate(-91.55 137.924 91.618)"><tspan x="0" y="0">G</tspan></text><text class="cls-1" transform="rotate(-77.38 143.576 65.223)"><tspan x="0" y="0">A</tspan></text><text class="cls-1" transform="rotate(-62.1 154.063 28.37)"><tspan x="0" y="0">N</tspan></text><text class="cls-1" transform="rotate(-46.61 168.58 -34.138)"><tspan x="0" y="0">G</tspan></text><text class="cls-1" transform="rotate(-32.73 191.297 -141.78)"><tspan x="0" y="0">E</tspan></text><text class="cls-1" transform="rotate(-19.51 246.857 -366.847)"><tspan x="0" y="0">R</tspan></text></g></svg>