<svg xmlns="http://www.w3.org/2000/svg" viewBox="0 0 326.11 366.22"><defs><style>.cls-1,.cls-2{fill:none;stroke:#7ca9bc;stroke-miterlimit:10;stroke-width:5px}.cls-1,.cls-3{fill-rule:evenodd}.cls-3{fill:#7ca9bc}</style></defs><g id="_イヤー_8"><g><path class="cls-1" d="M94.78 266.51c-11.46 6.88-8.11 18.79-6.42 22.17 3.36 6.73 7.44 6.44 14.83 15.85 7.42 9.45 5.82 11.63-6.5 21.81-2.37 1.96-24.7 11.57-25.45 11.69-6.99 1.15-28.66 1.15-33.04 1.83-7.5 1.18-17.28 23.7-4.79 23.85 36.8.43 90.54-13.28 92.87-30.5.95-6.98 21.97-23.84 18.04-37.35M84.02 191.62c-8.78 4.09-14.44 9.51-17.6 13.05-7.12 7.99-10.58 16.61-12.58 21.6-1 2.5-1.73 4.65-2.21 6.18M61.93 229.68a27.278 27.278 0 00-8.84 6.55c-3.58 4.01-5.31 8.34-6.31 10.84-.5 1.26-.87 2.33-1.11 3.1M52.76 248.35c-3.45 3.13-5.29 6.24-6.24 8.18-2.14 4.37-2.52 8.37-2.73 10.68a34.96 34.96 0 00-.15 2.81M47.95 265.36c-1.11 4.92-.52 9.28.05 11.93 1.29 5.97 4.15 10.89 5.8 13.73.83 1.43 1.59 2.6 2.14 3.43"/><path class="cls-1" d="M55.94 283.83c.7 4.66 3.47 18.86 15.82 29.58 5.74 4.98 17.32 10.42 21.49 11.8M176.42 260.27c-5.52 3.31-7.66 1.76-12.23 21.17-4.91 20.88 9.37 30.25 12.61 32.94 9.26 7.68 15.98 10.87 29.89 16.28 11.2 4.36 15.75-1.07 10.2 3.19-2.44 1.88-24.93 6.91-25.68 7.03-6.99 1.15-31.39-.84-35.77-.15-7.5 1.18-16.92 21.94-4.43 22.08 36.8.43 92.1-7.97 107.82-15.36 4.23-1.99.63-16.53-3.07-18.94-6.11-3.97-23.81-3.08-28.71-9.4-4.22-5.44 15.24-3.28 18.57-6.65M278.06 292.43c-2.49 3.73-5.57 6-7.55 7.24-4.49 2.79-9.19 3.91-11.9 4.56-1.36.33-2.53.54-3.35.69"/><path class="cls-1" d="M249.43 308.64a19.28 19.28 0 01-6.68 2.86c-3.44.73-6.39.35-8.1.13-.86-.11-1.57-.24-2.07-.35M267.98 301.91c-1.19 1.33-5.12 5.24-12.86 5.61-3.6.17-10-.98-12.19-1.58M130.09 331.78a127.73 127.73 0 0027.52 6.11c21.3 2.31 39-1.23 50.45-4.59"/><path class="cls-2" d="M287.61 327.95c-13.32 2.75-34.85-7.61-38.18-16.23"/><path class="cls-1" d="M309.68 290.05c2.55 1.78 8.68 12.59 8.59 16.15"/><path class="cls-2" d="M296.6 325.17c1.77 1.76 5.79 4.76 15.31 1.54M309.34 323.21c3.34 1.47 2.46 2.98 10.77 2.91"/><path class="cls-1" d="M312.55 302.39c2.12 3.44 4.86 1.55 9.99 15.14"/><path class="cls-2" d="M283.14 321.95c.72 2.11.06 5.61 14.59 6.22"/><path class="cls-1" d="M317.45 316.31c1.7 1.87 4.57 4.01 6.24 10.64M312.26 289.64c-3.56-5.4-8.62-11.38-13.94-10.86"/><path class="cls-2" d="M134.83 184.66c-6.6 1.54-11.61 3.46-14.22 5.4l-12.54 7.08c6.88-2.27 16.9-14.19 21.44-20.13 3.42-4.48 7.02-8.17 9.51-17.29 1.47-5.37.08-10.28 1.61-16.14 0 0 12.07-5.38 14.23-6.47C264.38 81.37 275.3-3.49 152.32 82.6c21.74-29.22 31.53-61.8 31.07-72.87-.14-3.33-3.56-6.2-7.29-7C154.08-2 97.84 68.89 89.22 96.1c-6.83-1.34-28.57 6.2-32.19 8.64-4.71 3.18-9.81 9.06-19.84 11.71-13.3 3.51-23.61 16.58-29.84 24.14-5.02 6.09-6.01 23.67-3.6 32.13 2.28 8 24.74 24.07 38.59 25.05 13.15.93 31.19 1.62 31.19 1.62M156.76 175.98c-6.08.65-21.62 4.32-26.07 14.4M306.59 281.56c-3.83-6.34-19.46-15.61-26.34-16.57l1.03-4.71c-5.31-48.33-52.52-64.72-65.58-69.89M173.28 175.98c-5.53-.06-19.48 1.36-22.63 8.83M197.1 177.4c-5.92-1.53-21.76-3.55-29.47 4.33M224.41 190.38c-12.02-5.61-21.33-11.26-40.34-8.46M185.05 202.27c-3.57-.02-12.57.54-14.61 3.52M200.43 202.84c-3.82-.61-14.04-1.42-19.02 1.73M218.05 208.02c-7.76-2.24-13.76-4.49-26.03-3.38M173.56 352.34c-1.41-.19-7.67-.85-12.99 3.36-2.5 1.98-3.87 4.3-4.59 5.81M161.37 346.28c-1.42.05-7.7.44-12.25 5.48-2.13 2.37-3.1 4.89-3.55 6.49M52.76 353.74c-1.41-.19-7.67-.85-12.99 3.36-2.5 1.98-3.87 4.3-4.59 5.81M45.86 347.68c-1.41-.19-7.67-.85-12.99 3.36-2.5 1.98-3.87 4.3-4.59 5.81"/><path class="cls-2" d="M51.29 177.67c8.08 4.37 11.78 7.38 17.65 9.96 8.9 3.91 12.59 5.67 19.17 5.86 1.87.05 8.76.49 9.79.39M65.41 168.38c6.7 1.98 9.93 3.63 14.7 4.63 7.23 1.51 10.25 2.24 15.18 1.34 1.4-.25 6.59-1.02 7.34-1.25"/><path class="cls-3" d="M145.72 17.19c15.26-10.97 27.88-15.5 33.33-10.7 4.41 3.88 3.35 13.19-1.96 25.35M200.91 52.8c16.59-8.84 33.28-8.22 38.04-2.74 3.85 4.43 1.57 13.52-5.31 24.87"/></g></g></svg>