<?xml version="1.0" encoding="UTF-8"?><svg id="_イヤー_2" xmlns="http://www.w3.org/2000/svg" viewBox="0 0 417.98 414.11"><defs><style>.cls-1{font-family:Bicyclette-Bold, Bicyclette;font-size:61.76px;}</style></defs><g id="_イヤー_1-2"><text class="cls-1" transform="translate(238.95 46.8) rotate(18.51)"><tspan x="0" y="0">D</tspan></text><text class="cls-1" transform="translate(278.39 59.55) rotate(33.71)"><tspan x="0" y="0">O</tspan></text><text class="cls-1" transform="translate(314.67 83.55) rotate(48.78)"><tspan x="0" y="0">D</tspan></text><text class="cls-1" transform="translate(341.53 115.93) rotate(58.45)"><tspan x="0" y="0"> </tspan></text><text class="cls-1" transform="translate(348.27 126.84) rotate(63.05)"><tspan x="0" y="0"> </tspan></text><text class="cls-1" transform="translate(354.09 138.23) rotate(67.67)"><tspan x="0" y="0"> </tspan></text><text class="cls-1" transform="translate(358.98 150.05) rotate(72.29)"><tspan x="0" y="0"> </tspan></text><text class="cls-1" transform="translate(363.8 161.3) rotate(81.4)"><tspan x="0" y="0">B</tspan></text><text class="cls-1" transform="translate(369.26 198.92) rotate(93.47)"><tspan x="0" y="0">a</tspan></text><text class="cls-1" transform="translate(367.62 229.18) rotate(104.37)"><tspan x="0" y="0">u</tspan></text><text class="cls-1" transform="translate(360.19 258.84) rotate(115.4)"><tspan x="0" y="0">h</tspan></text><text class="cls-1" transform="translate(347.19 286.61) rotate(126.36)"><tspan x="0" y="0">ü</tspan></text><text class="cls-1" transform="translate(329.91 311.62) rotate(139.31)"><tspan x="0" y="0">tt</tspan></text><text class="cls-1" transform="translate(297.89 338.73) rotate(152.3)"><tspan x="0" y="0">e</tspan></text><text class="cls-1" transform="translate(269.2 353.12) rotate(160.3)"><tspan x="0" y="0"> </tspan></text><text class="cls-1" transform="translate(257.14 357.47) rotate(164.94)"><tspan x="0" y="0"> </tspan></text><text class="cls-1" transform="translate(244.78 360.83) rotate(169.56)"><tspan x="0" y="0"> </tspan></text><text class="cls-1" transform="translate(232.19 363.18) rotate(174.16)"><tspan x="0" y="0"> </tspan></text><text class="cls-1" transform="translate(220.28 365.79) rotate(-176.27)"><tspan x="0" y="0">D</tspan></text><text class="cls-1" transform="translate(178.91 363.55) rotate(-161.08)"><tspan x="0" y="0">O</tspan></text><text class="cls-1" transform="translate(137.74 349.21) rotate(-146.86)"><tspan x="0" y="0">P</tspan></text><text class="cls-1" transform="translate(107.56 329.77) rotate(-134.09)"><tspan x="0" y="0">P</tspan></text><text class="cls-1" transform="translate(82.41 304.1) rotate(-121.37)"><tspan x="0" y="0">E</tspan></text><text class="cls-1" transform="translate(63.9 273.71) rotate(-109.37)"><tspan x="0" y="0">L</tspan></text><text class="cls-1" transform="translate(53.9 243.51) rotate(-101.41)"><tspan x="0" y="0"> </tspan></text><text class="cls-1" transform="translate(50.07 231.97) rotate(-91.55)"><tspan x="0" y="0">G</tspan></text><text class="cls-1" transform="translate(48.56 191.08) rotate(-77.38)"><tspan x="0" y="0">A</tspan></text><text class="cls-1" transform="translate(56.9 151.25) rotate(-62.1)"><tspan x="0" y="0">N</tspan></text><text class="cls-1" transform="translate(77.58 111.82) rotate(-46.61)"><tspan x="0" y="0">G</tspan></text><text class="cls-1" transform="translate(107.03 80.92) rotate(-32.73)"><tspan x="0" y="0">E</tspan></text><text class="cls-1" transform="translate(136.69 61.38) rotate(-19.51)"><tspan x="0" y="0">R</tspan></text></g></svg>